<svg width="883" height="299" xmlns="http://www.w3.org/2000/svg" xml:space="preserve" fill-rule="evenodd" clip-rule="evenodd" stroke-linejoin="round" stroke-miterlimit="2"><path fill="none" d="M0 0h882.127v298.314H0z"/><g fill="#45454e" transform="translate(40.773 43.505) scale(7.23848)"><circle cx="7.5" cy="4.5" r=".5"/><circle cx="5.5" cy="4.5" r=".5"/><circle cx="3.5" cy="4.5" r=".5"/><path d="M30.5 7h-2a.5.5 0 0 1 0-1h2a.5.5 0 0 1 0 1ZM13.5 7h-12a.5.5 0 0 1 0-1h12a.5.5 0 0 1 0 1Z" fill-rule="nonzero"/><path d="M6.5 28h-4c-.827 0-1.5-.673-1.5-1.5v-23C1 2.673 1.673 2 2.5 2h11a.5.5 0 0 1 0 1h-11a.5.5 0 0 0-.5.5v23a.5.5 0 0 0 .5.5h4a.5.5 0 0 1 0 1Z" fill-rule="nonzero"/><path d="M29.5 28h-24a.5.5 0 0 1 0-1h24a.5.5 0 0 0 .5-.5v-23a.5.5 0 0 0-.5-.5h-1a.5.5 0 0 1 0-1h1c.827 0 1.5.673 1.5 1.5v23c0 .827-.673 1.5-1.5 1.5Z" fill-rule="nonzero"/></g><path d="M87.823 159.32H66.107a3.62 3.62 0 0 1-3.619-3.619 3.62 3.62 0 0 1 3.62-3.619h21.715a3.62 3.62 0 0 1 3.62 3.62 3.62 3.62 0 0 1-3.62 3.618ZM131.254 115.89H66.107a3.62 3.62 0 0 1-3.619-3.62 3.62 3.62 0 0 1 3.62-3.619h65.146a3.62 3.62 0 0 1 3.619 3.62 3.62 3.62 0 0 1-3.62 3.619ZM131.254 130.367H66.107a3.62 3.62 0 0 1-3.619-3.62 3.62 3.62 0 0 1 3.62-3.619h65.146a3.62 3.62 0 0 1 3.619 3.62 3.62 3.62 0 0 1-3.62 3.619ZM131.254 144.844H66.107a3.62 3.62 0 0 1-3.619-3.62 3.62 3.62 0 0 1 3.62-3.619h65.146a3.62 3.62 0 0 1 3.619 3.62 3.62 3.62 0 0 1-3.62 3.619ZM232.593 209.99a3.574 3.574 0 0 1-2.288-.818l-37.524-30.699-37.524 30.692c-1.079.89-2.577 1.056-3.844.47a3.608 3.608 0 0 1-2.063-3.264V83.316a3.62 3.62 0 0 1 3.62-3.619 3.62 3.62 0 0 1 3.618 3.62v115.417l33.906-27.738a3.63 3.63 0 0 1 4.581 0l33.898 27.738V61.601c0-1.99-1.621-3.62-3.619-3.62h-65.146a3.625 3.625 0 0 0-3.62 3.62v3.612a3.62 3.62 0 0 1-3.619 3.62 3.62 3.62 0 0 1-3.619-3.62v-3.612c0-5.986 4.872-10.858 10.858-10.858h65.146c5.986 0 10.858 4.872 10.858 10.858v144.77a3.62 3.62 0 0 1-3.62 3.619Z" fill="#45454e" fill-rule="nonzero"/><text x="407.633" y="55.831" font-family="&quot;GoogleSans-Regular&quot;,&quot;Google Sans&quot;,sans-serif" font-size="19.493" fill="#45454e" transform="translate(-1212.474 -69.356) scale(3.74766)">A<tspan x="419.719px 429.543px" y="55.831px 55.831px">va</tspan>ilab<tspan x="470.304" y="55.831">l</tspan>e a<tspan x="500.07" y="55.831">s</tspan> a</text><text x="407.633" y="75.324" font-family="&quot;GoogleSans-Regular&quot;,&quot;Google Sans&quot;,sans-serif" font-size="24" fill="#45454e" transform="translate(-1212.474 -69.356) scale(3.74766)">Boo<tspan x="450.665px 462.785px 483.689px 496.433px 505.553px 517.673px 522.617px 535.769px" y="75.324px 75.324px 75.324px 75.324px 75.324px 75.324px 75.324px 75.324px">kmarklet</tspan></text></svg>