<svg width="992" height="300" viewBox="0 0 992 300" xmlns="http://www.w3.org/2000/svg" xml:space="preserve" fill-rule="evenodd" clip-rule="evenodd" stroke-linejoin="round" stroke-miterlimit="2"><path d="M75.916 26.831c-1.684-4.052-5.1-8.427-7.775-9.81a40.269 40.269 0 0 1 3.925 11.764l.007.065C67.691 17.925 60.26 13.52 54.191 3.928a47.975 47.975 0 0 1-.913-1.484 12.014 12.014 0 0 1-.427-.8 7.021 7.021 0 0 1-.578-1.535.1.1 0 0 0-.088-.1.13.13 0 0 0-.073 0c-.005 0-.013.009-.019.011s-.019.011-.028.015l.015-.026c-9.735 5.7-13.038 16.252-13.342 21.53a19.387 19.387 0 0 0-10.666 4.111 11.32 11.32 0 0 0-1-.758 17.967 17.967 0 0 1-.109-9.473 28.703 28.703 0 0 0-9.329 7.21h-.018c-1.536-1.947-1.428-8.367-1.34-9.708a6.973 6.973 0 0 0-1.294.687 28.237 28.237 0 0 0-3.788 3.245A33.77 33.77 0 0 0 7.571 21.2v.006-.007a32.729 32.729 0 0 0-5.2 11.743l-.052.256c-.143.804-.27 1.611-.381 2.42 0 .029-.006.056-.009.085a37.035 37.035 0 0 0-.629 5.343v.2c.019 21.25 17.509 38.725 38.759 38.725 18.786 0 35.002-13.658 38.195-32.171.065-.5.118-.995.176-1.5a39.861 39.861 0 0 0-2.514-19.469Zm-44.67 30.338c.181.087.351.181.537.264l.027.017c-.188-.09-.376-.184-.564-.281Zm40.83-28.31v-.037l.007.041-.007-.004Z" fill="url(#a)" fill-rule="nonzero" transform="translate(76.355 53.246) scale(2.41961)"/><path d="M75.916 26.831c-1.684-4.052-5.1-8.427-7.775-9.81a40.269 40.269 0 0 1 3.925 11.764v.037l.007.041a35.112 35.112 0 0 1-1.206 26.158c-4.442 9.531-15.194 19.3-32.024 18.825-18.185-.515-34.2-14.009-37.194-31.683-.545-2.787 0-4.2.274-6.465a28.884 28.884 0 0 0-.623 5.348v.2c.019 21.25 17.509 38.725 38.759 38.725 18.786 0 35.002-13.658 38.195-32.171.065-.5.118-.995.176-1.5a39.861 39.861 0 0 0-2.514-19.469Z" fill="url(#b)" fill-rule="nonzero" transform="translate(76.355 53.246) scale(2.41961)"/><path d="M75.916 26.831c-1.684-4.052-5.1-8.427-7.775-9.81a40.269 40.269 0 0 1 3.925 11.764v.037l.007.041a35.112 35.112 0 0 1-1.206 26.158c-4.442 9.531-15.194 19.3-32.024 18.825-18.185-.515-34.2-14.009-37.194-31.683-.545-2.787 0-4.2.274-6.465a28.884 28.884 0 0 0-.623 5.348v.2c.019 21.25 17.509 38.725 38.759 38.725 18.786 0 35.002-13.658 38.195-32.171.065-.5.118-.995.176-1.5a39.861 39.861 0 0 0-2.514-19.469Z" fill="url(#c)" fill-rule="nonzero" transform="translate(76.355 53.246) scale(2.41961)"/><path d="M57.082 31.387c.084.059.162.118.241.177a21.103 21.103 0 0 0-3.6-4.695C41.677 14.821 50.566.746 52.065.031l.015-.022c-9.735 5.7-13.038 16.252-13.342 21.53.452-.031.9-.069 1.362-.069a19.581 19.581 0 0 1 16.982 9.917Z" fill="url(#d)" fill-rule="nonzero" transform="translate(76.355 53.246) scale(2.41961)"/><path d="M40.125 33.793c-.064.964-3.47 4.289-4.661 4.289-11.021 0-12.81 6.667-12.81 6.667.488 5.614 4.4 10.238 9.129 12.684.215.11.433.214.654.312.379.168.759.323 1.138.466a17.26 17.26 0 0 0 5.043.973c19.317.906 23.059-23.1 9.119-30.066a13.38 13.38 0 0 1 9.345 2.269A19.581 19.581 0 0 0 40.1 21.47c-.46 0-.91.038-1.362.069a19.387 19.387 0 0 0-10.666 4.111c.591.5 1.258 1.168 2.663 2.553 2.63 2.591 9.375 5.275 9.39 5.59Z" fill="url(#e)" fill-rule="nonzero" transform="translate(76.355 53.246) scale(2.41961)"/><path d="M40.125 33.793c-.064.964-3.47 4.289-4.661 4.289-11.021 0-12.81 6.667-12.81 6.667.488 5.614 4.4 10.238 9.129 12.684.215.11.433.214.654.312.379.168.759.323 1.138.466a17.26 17.26 0 0 0 5.043.973c19.317.906 23.059-23.1 9.119-30.066a13.38 13.38 0 0 1 9.345 2.269A19.581 19.581 0 0 0 40.1 21.47c-.46 0-.91.038-1.362.069a19.387 19.387 0 0 0-10.666 4.111c.591.5 1.258 1.168 2.663 2.553 2.63 2.591 9.375 5.275 9.39 5.59Z" fill="url(#f)" fill-rule="nonzero" transform="translate(76.355 53.246) scale(2.41961)"/><path d="M26.265 24.361c.27.172.537.349.8.531a17.967 17.967 0 0 1-.109-9.473 28.703 28.703 0 0 0-9.329 7.21c.189-.005 5.811-.106 8.638 1.732Z" fill="url(#g)" fill-rule="nonzero" transform="translate(76.355 53.246) scale(2.41961)"/><path d="M1.654 42.163c2.991 17.674 19.009 31.168 37.194 31.683 16.83.476 27.582-9.294 32.024-18.825a35.112 35.112 0 0 0 1.206-26.158v-.037c0-.029-.006-.046 0-.037l.007.065c1.375 8.977-3.191 17.674-10.329 23.555l-.022.05c-13.908 11.327-27.218 6.834-29.912 5-.188-.09-.376-.184-.564-.281-8.109-3.876-11.459-11.264-10.741-17.6a9.969 9.969 0 0 1-9.181-5.775 14.63 14.63 0 0 1 14.249-.572 19.307 19.307 0 0 0 14.552.572c-.015-.315-6.76-3-9.39-5.59-1.405-1.385-2.072-2.052-2.663-2.553a11.32 11.32 0 0 0-1-.758 61.567 61.567 0 0 0-.8-.531c-2.827-1.838-8.449-1.737-8.635-1.732h-.018c-1.536-1.947-1.428-8.367-1.34-9.708a6.973 6.973 0 0 0-1.294.687 28.237 28.237 0 0 0-3.788 3.245A33.794 33.794 0 0 0 7.571 21.2v.006-.007a32.729 32.729 0 0 0-5.2 11.743c-.019.079-1.396 6.099-.717 9.221Z" fill="url(#h)" fill-rule="nonzero" transform="translate(76.355 53.246) scale(2.41961)"/><path d="M53.725 26.869a21.102 21.102 0 0 1 3.6 4.7c.201.15.395.308.581.476 8.787 8.1 4.183 19.55 3.84 20.365 7.138-5.881 11.7-14.578 10.329-23.555C67.691 17.925 60.26 13.52 54.191 3.928a47.975 47.975 0 0 1-.913-1.484 12.014 12.014 0 0 1-.427-.8 7.021 7.021 0 0 1-.578-1.535.1.1 0 0 0-.088-.1.13.13 0 0 0-.073 0c-.005 0-.013.009-.019.011s-.019.011-.028.015c-1.499.711-10.388 14.786 1.66 26.834Z" fill="url(#i)" fill-rule="nonzero" transform="translate(76.355 53.246) scale(2.41961)"/><path d="M57.9 32.04a8.03 8.03 0 0 0-.581-.476c-.079-.059-.157-.118-.241-.177a13.38 13.38 0 0 0-9.345-2.269c13.94 6.97 10.2 30.972-9.119 30.066a17.26 17.26 0 0 1-5.043-.973 20.178 20.178 0 0 1-1.138-.466 15.078 15.078 0 0 1-.654-.312l.027.017c2.694 1.839 16 6.332 29.912-5l.022-.05c.347-.81 4.951-12.263-3.84-20.36Z" fill="url(#j)" fill-rule="nonzero" transform="translate(76.355 53.246) scale(2.41961)"/><path d="M22.654 44.749s1.789-6.667 12.81-6.667c1.191 0 4.6-3.325 4.661-4.289a19.307 19.307 0 0 1-14.552-.572 14.63 14.63 0 0 0-14.249.572 9.969 9.969 0 0 0 9.181 5.775c-.718 6.337 2.632 13.725 10.741 17.6.181.087.351.181.537.264-4.733-2.445-8.641-7.069-9.129-12.683Z" fill="url(#k)" fill-rule="nonzero" transform="translate(76.355 53.246) scale(2.41961)"/><path d="M75.916 26.831c-1.684-4.052-5.1-8.427-7.775-9.81a40.269 40.269 0 0 1 3.925 11.764l.007.065C67.691 17.925 60.26 13.52 54.191 3.928a47.975 47.975 0 0 1-.913-1.484 12.014 12.014 0 0 1-.427-.8 7.021 7.021 0 0 1-.578-1.535.1.1 0 0 0-.088-.1.13.13 0 0 0-.073 0c-.005 0-.013.009-.019.011s-.019.011-.028.015l.015-.026c-9.735 5.7-13.038 16.252-13.342 21.53.452-.031.9-.069 1.362-.069a19.581 19.581 0 0 1 16.982 9.917 13.38 13.38 0 0 0-9.345-2.269c13.94 6.97 10.2 30.972-9.119 30.066a17.26 17.26 0 0 1-5.043-.973 20.178 20.178 0 0 1-1.138-.466 15.078 15.078 0 0 1-.654-.312l.027.017c-.188-.09-.376-.184-.564-.281.181.087.351.181.537.264-4.733-2.446-8.641-7.07-9.129-12.684 0 0 1.789-6.667 12.81-6.667 1.191 0 4.6-3.325 4.661-4.289-.015-.315-6.76-3-9.39-5.59-1.405-1.385-2.072-2.052-2.663-2.553a11.32 11.32 0 0 0-1-.758 17.967 17.967 0 0 1-.109-9.473 28.703 28.703 0 0 0-9.329 7.21h-.018c-1.536-1.947-1.428-8.367-1.34-9.708a6.973 6.973 0 0 0-1.294.687 28.237 28.237 0 0 0-3.788 3.245A33.77 33.77 0 0 0 7.571 21.2v.006-.007a32.729 32.729 0 0 0-5.2 11.743l-.052.256c-.073.341-.4 2.073-.447 2.445 0 .028 0-.029 0 0a45.133 45.133 0 0 0-.572 5.403v.2c.019 21.25 17.509 38.725 38.759 38.725 18.786 0 35.002-13.658 38.195-32.171.065-.5.118-.995.176-1.5a39.861 39.861 0 0 0-2.514-19.469Zm-3.845 1.991.007.041-.007-.041Z" fill="url(#l)" fill-rule="nonzero" transform="translate(76.355 53.246) scale(2.41961)"/><path d="M311.227 72.288h26.035v7.065h-18.583v9.534h18.583v6.992h-18.583v15.437h-7.452V72.288Zm34.89-2.71c.042-.002.085-.002.127-.002 2.296 0 4.185 1.89 4.185 4.186 0 .065-.002.13-.004.196a4.374 4.374 0 0 1-4.344 4.03 4.374 4.374 0 0 1-4.343-4.03v-.049c0-2.376 1.955-4.33 4.331-4.33h.049Zm-3.604 12.848h7.258v28.89h-7.258v-28.89Zm28.696 8.01a5.933 5.933 0 0 0-3.58-1.283c-2.977 0-4.695 1.935-4.695 6.146v16.017h-7.259v-28.89h6.993v4.162a6.908 6.908 0 0 1 6.75-4.307 8.678 8.678 0 0 1 4.84 1.5l-3.049 6.654Zm3.049 6.556c-.005-.138-.005-.273-.005-.411 0-8.084 6.651-14.735 14.735-14.735h.102c.196-.008.392-.013.59-.013 7.792 0 14.204 6.412 14.204 14.204 0 .164-.005.331-.01.496v3.024h-22.43c.743 3.719 4.179 6.33 7.96 6.05a7.73 7.73 0 0 0 7.26-4.284l6.145 3.678a15.115 15.115 0 0 1-13.501 6.848c-.37.029-.743.043-1.116.043-7.699 0-14.033-6.334-14.033-14.033 0-.288.01-.579.026-.867h.073Zm7.234-3.242h15.171c-.762-3.54-4.06-5.996-7.67-5.71a7.425 7.425 0 0 0-7.5 5.71Zm24.22-11.324h5.155V81c0-7.84 3.314-11.106 10.573-11.106h2.565v6.363h-2.08c-3.413 0-4.163 1.162-4.163 4.84v1.427h6.243v6.533h-6.073v22.26h-7.065v-22.26h-5.154v-6.63Zm19.672 14.518c-.002-.082-.002-.162-.002-.244 0-8.099 6.663-14.76 14.76-14.76.096 0 .195 0 .292.002 8.23 0 15.002 6.773 15.002 15.002 0 8.229-6.773 15.002-15.002 15.002-.215.01-.428.014-.643.014-7.963 0-14.518-6.555-14.518-14.518 0-.215.005-.428.014-.643l.097.145Zm22.962 0c.008-.145.012-.29.012-.438 0-4.34-3.571-7.912-7.912-7.912-4.34 0-7.912 3.571-7.912 7.912 0 .148.005.293.012.438-.007.145-.012.29-.012.438 0 4.34 3.571 7.912 7.912 7.912 4.341 0 7.912-3.571 7.912-7.912 0-.148-.004-.293-.012-.438Zm17.059-.315L455 82.523h8.493l6.146 8.88 6.29-8.88h8.494l-10.574 14.034 11.154 14.76h-8.59l-6.895-9.389-6.654 9.388h-8.59l11.13-14.687Zm62.183-5.492a9.041 9.041 0 0 0 5.178-8.445c0-6.315-4.839-10.38-12.098-10.38h-16.695v39.004h17.228c7.259 0 12.34-4.186 12.34-11.009a9.406 9.406 0 0 0-5.953-9.17Zm-19.139-14.76h12.098c4.84 0 7.695 2.565 7.695 6.315 0 3.75-2.565 6.51-7.259 6.51h-12.558l.024-12.825Zm12.703 30.85H508.45V93.315h12.51c5.323 0 8.105 2.83 8.105 6.968s-3.097 6.944-7.912 6.944Zm21.922-19.308v-5.444h-4.21v28.841h4.331v-15.8c0-6.363 2.758-9.146 7.573-9.146a6.348 6.348 0 0 1 3.533.92l1.815-4.162a9.353 9.353 0 0 0-4.84-1.089 8.007 8.007 0 0 0-8.202 5.88Zm28.213-6.073h-.148c-8.123 0-14.808 6.683-14.808 14.808l.002.193c-.002.107-.002.21-.002.317 0 8.07 6.64 14.711 14.711 14.711.08 0 .162 0 .245-.002.2.007.401.012.602.012 8.244 0 15.026-6.782 15.026-15.026 0-8.243-6.782-15.026-15.026-15.026-.2 0-.402.005-.602.013Zm0 25.865h-.083c-5.734 0-10.452-4.718-10.452-10.453 0-.152.002-.307.01-.46-.008-.169-.013-.336-.013-.505 0-5.8 4.774-10.574 10.574-10.574s10.574 4.774 10.574 10.574c0 .17-.005.336-.012.506.004.145.01.29.01.435 0 5.773-4.753 10.526-10.526 10.526h-.082v-.049Zm50.182-2.565-8.59-22.72h-4.064l-8.832 22.866-7.259-22.866h-4.597l9.46 28.89h4.284l8.855-22.89 8.88 22.89h3.944l10.017-28.866h-4.548l-7.55 22.696Zm27.536-10.525c-4.501-.92-7.961-1.5-7.961-4.5s1.815-4.598 6.243-4.598a9.324 9.324 0 0 1 7.912 4.017l3.63-2.42a13.896 13.896 0 0 0-11.446-5.274c-6.823 0-10.743 3.895-10.743 8.371 0 5.783 5.3 7.114 10.26 8.082 4.234.847 8.178 1.5 8.178 4.694s-2.42 5.033-6.824 5.033a10.704 10.704 0 0 1-9.315-4.718l-3.799 2.564a14.724 14.724 0 0 0 12.993 6.05c7.55 0 11.397-4.429 11.397-8.977-.049-5.928-5.565-7.332-10.525-8.276v-.048Zm29.035-12.775c-.082-.003-.165-.003-.245-.003-8.125 0-14.808 6.686-14.808 14.808 0 .107 0 .21.003.317-.005.136-.005.269-.005.404 0 7.966 6.552 14.518 14.518 14.518.234 0 .472-.005.706-.017a14.802 14.802 0 0 0 13.405-7.259l-3.726-2.178a10.348 10.348 0 0 1-9.679 5.566c-5.55.297-10.416-3.882-10.96-9.413h25.502v-1.984c.005-.155.007-.312.007-.467 0-7.818-6.433-14.251-14.251-14.251-.148 0-.295.002-.443.007l-.024-.048Zm-10.67 12.823c.875-5.17 5.424-8.979 10.67-8.928 5.236-.302 9.814 3.7 10.21 8.928h-20.88Zm43.068-12.678a8.008 8.008 0 0 0-8.226 5.88v-5.396h-4.235v28.841h4.332v-15.8c0-6.363 2.782-9.146 7.597-9.146a6.348 6.348 0 0 1 3.533.92l1.814-4.162a9.4 9.4 0 0 0-4.79-1.089l-.025-.048Zm-367.925 49.747-35.762 94.776h18.824l6.243-17.276h39.585l6.242 17.276h18.825l-35.835-94.776h-18.122Zm-4.598 60.902 13.768-37.65 13.622 37.65h-27.39Zm96.204-60.902h-30.632v94.776h30.97c28.286 0 49.07-20.373 49.07-47.376 0-27.003-19.308-47.4-49.408-47.4Zm-.774 77.645H421.9v-60.635h10.912c20.76 0 32.205 12.993 32.205 30.39 0 17.01-12.46 30.245-31.672 30.245Zm91.945-77.645h-30.68v94.776h31.019c28.309 0 49.166-20.373 49.166-47.449 0-27.075-19.357-47.327-49.554-47.327h.049Zm-.774 77.645h-11.421v-60.635h10.888c20.785 0 32.205 12.993 32.205 30.39-.048 17.01-12.51 30.245-31.72 30.245h.048Zm61.022-22.526h48.03v-15.462H585.49l.048 15.462Zm105.882-56.401h-.024c-26.705 0-48.682 21.974-48.682 48.682 0 26.708 21.977 48.683 48.682 48.683 26.708 0 48.683-21.975 48.683-48.683v-.29c0-26.548-21.845-48.392-48.393-48.392h-.266Zm0 79.314c-.152.003-.307.003-.46.003-16.845 0-30.704-13.86-30.704-30.705 0-16.843 13.86-30.705 30.705-30.705 16.842 0 30.702 13.86 30.704 30.702.003.187.005.37.005.557 0 16.538-13.61 30.148-30.148 30.148h-.102Zm120.715-13.501-41.52-64.531H750.99v94.776h17.784v-66.588l42.852 66.588h18.17v-94.776h-17.662v64.53Zm69.08-26.616c-11.832-2.71-21.293-4.137-21.293-11.807 0-6.219 4.404-11.3 14.663-11.3a24.491 24.491 0 0 1 22.188 11.832l14.929-11.687c-9.679-10.646-20.107-16.477-36.851-16.477-19.744 0-33.633 12.46-33.633 28.019 0 19.211 15.849 23.76 29.98 26.736 13.114 3 22.211 4.84 22.211 13.647 0 6.872-5.323 11.808-15.582 11.808-11.3 0-19.72-5.057-25.962-14.93l-15.97 12.728c8.953 11.42 21.414 19.357 41.811 19.357 21.147 0 34.794-13.478 34.794-29.713 0-20.3-16.768-24.97-31.286-28.092v-.12Z" fill="#444" fill-rule="nonzero"/><defs><radialGradient id="b" cx="0" cy="0" r="1" gradientUnits="userSpaceOnUse" gradientTransform="matrix(79.2766 0 0 99.0957 69.212 17.021)"><stop offset="0" stop-color="#ffbd4f"/><stop offset=".13" stop-color="#ffbd4f"/><stop offset=".28" stop-color="#ff980e"/><stop offset=".47" stop-color="#ff3750"/><stop offset=".78" stop-color="#eb0878"/><stop offset=".86" stop-color="#e50080"/><stop offset="1" stop-color="#e50080"/></radialGradient><radialGradient id="c" cx="0" cy="0" r="1" gradientUnits="userSpaceOnUse" gradientTransform="matrix(81.2585 0 0 99.0957 39.22 42.201)"><stop offset="0" stop-color="#960e18"/><stop offset=".3" stop-color="#960e18"/><stop offset=".35" stop-color="#b11927" stop-opacity=".74"/><stop offset=".43" stop-color="#db293d" stop-opacity=".34"/><stop offset=".5" stop-color="#f5334b" stop-opacity=".09"/><stop offset=".53" stop-color="#ff3750" stop-opacity="0"/><stop offset="1" stop-color="#ff3750" stop-opacity="0"/></radialGradient><radialGradient id="d" cx="0" cy="0" r="1" gradientUnits="userSpaceOnUse" gradientTransform="translate(47.659 -3.778) scale(44.177)"><stop offset="0" stop-color="#fff44f"/><stop offset=".13" stop-color="#fff44f"/><stop offset=".53" stop-color="#ff980e"/><stop offset="1" stop-color="#ff980e"/></radialGradient><radialGradient id="e" cx="0" cy="0" r="1" gradientUnits="userSpaceOnUse" gradientTransform="translate(30.49 63.024) scale(37.739)"><stop offset="0" stop-color="#3a8ee6"/><stop offset=".35" stop-color="#3a8ee6"/><stop offset=".67" stop-color="#9059ff"/><stop offset="1" stop-color="#c139e6"/></radialGradient><radialGradient id="f" cx="0" cy="0" r="1" gradientUnits="userSpaceOnUse" gradientTransform="matrix(20.0394 0 0 22.266 38.766 33.924)"><stop offset="0" stop-color="#9059ff" stop-opacity="0"/><stop offset=".21" stop-color="#9059ff" stop-opacity="0"/><stop offset=".97" stop-color="#6e008b" stop-opacity=".6"/><stop offset="1" stop-color="#6e008b" stop-opacity=".6"/></radialGradient><radialGradient id="g" cx="0" cy="0" r="1" gradientUnits="userSpaceOnUse" gradientTransform="translate(37.447 5.946) scale(27.4717)"><stop offset="0" stop-color="#ffe226"/><stop offset=".1" stop-color="#ffe226"/><stop offset=".79" stop-color="#ff7139"/><stop offset="1" stop-color="#ff7139"/></radialGradient><radialGradient id="h" cx="0" cy="0" r="1" gradientUnits="userSpaceOnUse" gradientTransform="translate(62.43 -12.051) scale(130.637)"><stop offset="0" stop-color="#fff44f"/><stop offset=".11" stop-color="#fff44f"/><stop offset=".46" stop-color="#ff980e"/><stop offset=".72" stop-color="#ff3647"/><stop offset=".9" stop-color="#e31587"/><stop offset="1" stop-color="#e31587"/></radialGradient><radialGradient id="i" cx="0" cy="0" r="1" gradientUnits="userSpaceOnUse" gradientTransform="matrix(19.1069 180.433 -86.0842 8.98027 51.38 -9.916)"><stop offset="0" stop-color="#fff44f"/><stop offset=".3" stop-color="#ff980e"/><stop offset=".57" stop-color="#ff3647"/><stop offset=".74" stop-color="#e31587"/><stop offset="1" stop-color="#e31587"/></radialGradient><radialGradient id="j" cx="0" cy="0" r="1" gradientUnits="userSpaceOnUse" gradientTransform="translate(37.727 15.88) scale(75.033)"><stop offset="0" stop-color="#fff44f"/><stop offset=".14" stop-color="#fff44f"/><stop offset=".48" stop-color="#ff980e"/><stop offset=".66" stop-color="#ff3647"/><stop offset=".9" stop-color="#e31587"/><stop offset="1" stop-color="#e31587"/></radialGradient><radialGradient id="k" cx="0" cy="0" r="1" gradientUnits="userSpaceOnUse" gradientTransform="translate(57.204 20.108) scale(90.1759)"><stop offset="0" stop-color="#fff44f"/><stop offset=".09" stop-color="#fff44f"/><stop offset=".63" stop-color="#ff980e"/><stop offset="1" stop-color="#ff980e"/></radialGradient><linearGradient id="a" x1="0" y1="0" x2="1" y2="0" gradientUnits="userSpaceOnUse" gradientTransform="rotate(134.164 31.803 20.753) scale(86.5058)"><stop offset="0" stop-color="#fff44f"/><stop offset=".05" stop-color="#fff44f"/><stop offset=".37" stop-color="#ff980e"/><stop offset=".53" stop-color="#ff3647"/><stop offset=".7" stop-color="#e31587"/><stop offset="1" stop-color="#e31587"/></linearGradient><linearGradient id="l" x1="0" y1="0" x2="1" y2="0" gradientUnits="userSpaceOnUse" gradientTransform="rotate(130.613 29.043 20.138) scale(73.7385)"><stop offset="0" stop-color="#fff44f" stop-opacity=".8"/><stop offset=".17" stop-color="#fff44f" stop-opacity=".8"/><stop offset=".6" stop-color="#fff44f" stop-opacity="0"/><stop offset="1" stop-color="#fff44f" stop-opacity="0"/></linearGradient></defs></svg>